name analog
datacolumns 19
datarows 26
range 0.28200000000000003 0.2945
endheader
time	ground_force_vx	ground_force_vy	ground_force_vz	ground_force_px	ground_force_py	ground_force_pz	l_ground_force_vx	l_ground_force_vy	l_ground_force_vz	l_ground_force_px	l_ground_force_py	l_ground_force_pz	ground_torque_x	ground_torque_y	ground_torque_z	l_ground_torque_x	l_ground_torque_y	l_ground_torque_z
0.28200000000000003	-0.0	-0.0	-0.0	-3.053417444229126	-11.347966194152832	-795.008056640625	-0.0	-0.0	-0.0	-34.88880157470703	15.814323425292969	75.4547119140625	-0.0	-0.0	-0.0	-0.0	-0.0	-0.0
0.28250000000000003	-0.0	-0.0	-0.0	-4.063238620758057	-9.435932159423828	-789.8563232421875	-0.0	-0.0	-0.0	-34.83970642089844	16.214828491210938	76.3492431640625	-0.0	-0.0	-0.0	-0.0	-0.0	-0.0
0.28300000000000003	-0.0	-0.0	-0.0	-5.015973091125488	-8.289127349853516	-784.286376953125	-0.0	-0.0	-0.0	-34.779205322265625	16.113508224487305	76.04270935058594	-0.0	-0.0	-0.0	-0.0	-0.0	-0.0
0.28350000000000003	-0.0	-0.0	-0.0	-5.867729187011719	-7.340439796447754	-779.160888671875	-0.0	-0.0	-0.0	-34.56223678588867	16.005569458007812	75.96353912353516	-0.0	-0.0	-0.0	-0.0	-0.0	-0.0
0.28400000000000003	-0.0	-0.0	-0.0	-5.499502182006836	-7.090214729309082	-775.9708251953125	-0.0	-0.0	-0.0	-34.97826385498047	16.165159225463867	75.06795501708984	-0.0	-0.0	-0.0	-0.0	-0.0	-0.0
0.28450000000000003	-0.0	-0.0	-0.0	-4.2531609535217285	-6.664709091186523	-773.2160034179688	-0.0	-0.0	-0.0	-34.93817138671875	16.1650447845459	76.70124053955078	-0.0	-0.0	-0.0	-0.0	-0.0	-0.0
0.28500000000000003	-0.0	-0.0	-0.0	-2.6763153076171875	-6.526575565338135	-767.1510009765625	-0.0	-0.0	-0.0	-35.067718505859375	16.354328155517578	75.53329467773438	-0.0	-0.0	-0.0	-0.0	-0.0	-0.0
0.28550000000000003	-0.0	-0.0	-0.0	-1.6949996948242188	-5.713401317596436	-764.3248291015625	-0.0	-0.0	-0.0	-34.99825668334961	16.174427032470703	76.35070037841797	-0.0	-0.0	-0.0	-0.0	-0.0	-0.0
0.28600000000000003	-0.0	-0.0	-0.0	-2.1210532188415527	-4.860641002655029	-761.9248046875	-0.0	-0.0	-0.0	-35.13722610473633	16.01459503173828	75.18204498291016	-0.0	-0.0	-0.0	-0.0	-0.0	-0.0
0.28650000000000003	-0.0	-0.0	-0.0	-2.925335645675659	-3.821946144104004	-758.1614379882812	-0.0	-0.0	-0.0	-34.670494079589844	15.994548797607422	75.57107543945312	-0.0	-0.0	-0.0	-0.0	-0.0	-0.0
0.28700000000000003	-0.0	-0.0	-0.0	-4.341920375823975	-2.268101453781128	-756.5863037109375	-0.0	-0.0	-0.0	-34.948486328125	16.034603118896484	75.53276062011719	-0.0	-0.0	-0.0	-0.0	-0.0	-0.0
0.28750000000000003	-0.0	-0.0	-0.0	-5.679965019226074	-0.9111870527267456	-755.8458251953125	-0.0	-0.0	-0.0	-35.10763931274414	16.114652633666992	74.94795989990234	-0.0	-0.0	-0.0	-0.0	-0.0	-0.0
0.28800000000000003	-0.0	-0.0	-0.0	-6.581683158874512	-0.3661459982395172	-756.158203125	-0.0	-0.0	-0.0	-34.75938034057617	16.124528884887695	75.3373794555664	-0.0	-0.0	-0.0	-0.0	-0.0	-0.0
0.2885	-0.0	-0.0	-0.0	-7.315551280975342	-0.1483579576015472	-760.3963623046875	-0.0	-0.0	-0.0	-34.75972366333008	16.194534301757812	74.9859848022461	-0.0	-0.0	-0.0	-0.0	-0.0	-0.0
0.289	-0.0	-0.0	-0.0	-8.157794952392578	-0.1386087238788604	-764.59521484375	-0.0	-0.0	-0.0	-35.15718078613281	16.36405372619629	75.53228759765625	-0.0	-0.0	-0.0	-0.0	-0.0	-0.0
0.2895	-0.0	-0.0	-0.0	-8.018881797790527	-1.3265591859817505	-773.5437622070312	-0.0	-0.0	-0.0	-35.087459564208984	16.414182662963867	75.37726593017578	-0.0	-0.0	-0.0	-0.0	-0.0	-0.0
0.29	-0.0	-0.0	-0.0	-8.2864351272583	-3.0203006267547607	-776.4840698242188	-0.0	-0.0	-0.0	-34.84935760498047	16.00396728515625	76.62640380859375	-0.0	-0.0	-0.0	-0.0	-0.0	-0.0
0.2905	-0.0	-0.0	-0.0	-8.613104820251465	-4.138566493988037	-777.973876953125	-0.0	-0.0	-0.0	-35.008663177490234	16.06320571899414	74.98448181152344	-0.0	-0.0	-0.0	-0.0	-0.0	-0.0
0.291	-0.0	-0.0	-0.0	-9.436622619628906	-5.139455318450928	-781.1194458007812	-0.0	-0.0	-0.0	-34.84950637817383	16.40516471862793	75.8056640625	-0.0	-0.0	-0.0	-0.0	-0.0	-0.0
0.2915	-0.0	-0.0	-0.0	-9.74362087249756	-5.080432891845703	-783.1557006835938	-0.0	-0.0	-0.0	-34.95863342285156	16.034337997436523	76.11371612548828	-0.0	-0.0	-0.0	-0.0	-0.0	-0.0
0.292	-0.0	-0.0	-0.0	-9.92032241821289	-4.634780883789063	-785.1256103515625	-0.0	-0.0	-0.0	-34.969757080078125	16.01459503173828	76.66129302978516	-0.0	-0.0	-0.0	-0.0	-0.0	-0.0
0.2925	-0.0	-0.0	-0.0	-10.457229614257812	-3.4477217197418213	-781.4320068359375	-0.0	-0.0	-0.0	-34.799346923828125	15.932989120483398	75.69631958007812	-0.0	-0.0	-0.0	-0.0	-0.0	-0.0
0.293	-0.0	-0.0	-0.0	-10.864096641540527	-1.5347847938537598	-780.5706787109375	-0.0	-0.0	-0.0	-34.997802734375	15.932916641235352	75.333740234375	-0.0	-0.0	-0.0	-0.0	-0.0	-0.0
0.2935	-0.0	-0.0	-0.0	-12.121610641479492	-0.317460834980011	-775.7379150390625	-0.0	-0.0	-0.0	-34.97020721435547	15.932726860046388	75.21187591552734	-0.0	-0.0	-0.0	-0.0	-0.0	-0.0
0.294	-0.0	-0.0	-0.0	-14.886985778808594	0.4373186230659485	-772.879150390625	-0.0	-0.0	-0.0	-34.64775848388672	16.37822723388672	74.90553283691406	-0.0	-0.0	-0.0	-0.0	-0.0	-0.0
0.2945	-0.0	-0.0	-0.0	-17.56620216369629	1.345217227935791	-771.2350463867188	-0.0	-0.0	-0.0	-34.760433197021484	16.206233978271484	76.12592315673828	-0.0	-0.0	-0.0	-0.0	-0.0	-0.0
